<?xml version="1.0" encoding="iso-8859-1"?>
<!-- Generator: Adobe Illustrator 18.0.0, SVG Export Plug-In . SVG Version: 6.00 Build 0)  -->
<!DOCTYPE svg PUBLIC "-//W3C//DTD SVG 1.1//EN" "http://www.w3.org/Graphics/SVG/1.1/DTD/svg11.dtd">
<!-- License: CC0. Made by SVG Repo: https://www.svgrepo.com/svg/104218/woman -->
<svg version="1.1" id="Capa_1" xmlns="http://www.w3.org/2000/svg" xmlns:xlink="http://www.w3.org/1999/xlink" x="0px" y="0px"
	 viewBox="0 0 179.22 179.22" style="enable-background:new 0 0 179.22 179.22;" xml:space="preserve">
<g>
	<rect x="0.366" y="0" style="fill:#51BFD2;" width="178.488" height="178.488"/>
	<g>
		<path style="fill-rule:evenodd;clip-rule:evenodd;fill:#AB7F42;" d="M72.152,151.204c-6.146-41.108-9.411-102.225,17.164-102.225
			c26.577,0,25.164,60.499,18.775,103.522C95.653,164.117,82.882,160.915,72.152,151.204z"/>
		<path style="fill-rule:evenodd;clip-rule:evenodd;fill:#8A6EA0;" d="M102.417,125.453c-0.264,0.416-26.25,0.829-26.537,1.239
			c-8.161,11.644-25.796,16.745-39.817,19.88c-13.954,3.12-14.493,20.844-14.514,32.649h136.03
			c-0.02-11.805-0.28-29.465-14.517-32.649C128.827,143.388,110.161,137.626,102.417,125.453z"/>
		<path style="fill-rule:evenodd;clip-rule:evenodd;fill:#FFE7DE;" d="M75.934,100.588v22.356v11.034
			c-4.733,8.925,8.562,37.258,13.712,37.195c4.777-0.06,17.947-26.026,13.546-37.195v-11.035v-22.355
			C103.193,82.559,75.934,82.559,75.934,100.588z"/>
		<path style="fill-rule:evenodd;clip-rule:evenodd;fill:#FFE7DE;" d="M125.651,85.378c-2.736-1.174-6.601,1.706-8.63,6.43
			c-2.031,4.727-1.462,9.51,1.273,10.684c2.735,1.172,6.598-1.706,8.629-6.434C128.954,91.334,128.387,86.553,125.651,85.378z"/>
		<path style="fill-rule:evenodd;clip-rule:evenodd;fill:#FFE7DE;" d="M53.447,85.378c2.737-1.174,6.599,1.705,8.631,6.43
			c2.03,4.727,1.46,9.51-1.275,10.685c-2.735,1.171-6.598-1.706-8.629-6.435C50.142,91.334,50.713,86.553,53.447,85.378z"/>
		<path style="fill-rule:evenodd;clip-rule:evenodd;fill:#FFE7DE;" d="M89.563,123.684c-8.873,0-27.618-13.95-33.413-33.929
			C50.298,69.578,61.317,40.64,89.563,40.64c28.244,0,39.267,28.938,33.414,49.115C117.181,109.734,98.437,123.684,89.563,123.684z"
			/>
		<path style="fill-rule:evenodd;clip-rule:evenodd;fill:#E76166;" d="M103.708,95.74c0.238-0.007,0.486-0.02,0.74-0.041
			c6.922-0.58,8.625-3.689,9.402-7.616c0.856-4.312,0.911-5.813,2.027-6.21c0.816-0.294,1.012-1.259,0.989-2.383
			c-0.029-1.119-0.063-1.241-1.414-1.708c-1.067-0.373-6.977-0.91-11.409-0.631l-0.018,1.163c3.49-0.192,6.859,0.228,7.834,0.861
			c2.222,1.438,1.573,8.381-0.299,11.821c-1.298,2.387-4.736,3.602-7.837,3.655L103.708,95.74z M90.779,79.42
			c-1.527,0.038-7.777-1.766-12.223-2.149c-0.316-0.029-0.639-0.054-0.973-0.071l-0.02,1.164c3.612,0.165,7.355,0.983,8.636,2.913
			c2.104,3.165-1.674,10.903-5.092,12.628c-1.038,0.521-2.405,0.792-3.844,0.807l-0.02,1.096c5.982,0.008,8.194-4.305,8.932-5.745
			c1.392-2.709,1.104-6.446,4.528-6.453c3.421-0.009,2.973,3.659,4.195,6.365c0.658,1.46,2.603,5.941,8.81,5.764l0.016-1.09
			c-1.529,0.022-2.987-0.24-4.053-0.789c-3.311-1.708-6.624-9.428-4.323-12.602c1.381-1.915,5.096-2.753,8.678-2.946l0.018-1.163
			c-0.274,0.016-0.544,0.034-0.807,0.061C99.233,77.575,94.376,79.326,90.779,79.42z M77.583,77.2
			c-4.39-0.233-10.204,0.319-11.277,0.689c-1.381,0.477-1.425,0.599-1.521,1.722c-0.095,1.122,0.051,2.087,0.844,2.375
			c1.09,0.393,1.053,1.895,1.65,6.204c0.537,3.924,2.05,7.022,8.938,7.573c0.352,0.029,0.694,0.04,1.026,0.045l0.02-1.096
			c-3.166,0.027-6.687-1.172-7.872-3.619c-1.663-3.435-1.895-10.371,0.422-11.824c1.001-0.627,4.319-1.062,7.75-0.905L77.583,77.2z"
			/>
		<path style="fill-rule:evenodd;clip-rule:evenodd;fill:#AB7F42;" d="M123.933,89.367c6.907-37.859-15.476-49.871-34.362-49.871
			c-21.273,0-43.263,16.315-33.086,51.12c20.279-0.999,38.817-13.01,56.735-36.763C116.271,65.92,118.33,81.603,123.933,89.367z"/>
	</g>
</g>
</svg>
