<?xml version="1.0" encoding="iso-8859-1"?>
<!-- Generator: Adobe Illustrator 18.0.0, SVG Export Plug-In . SVG Version: 6.00 Build 0)  -->
<!DOCTYPE svg PUBLIC "-//W3C//DTD SVG 1.1//EN" "http://www.w3.org/Graphics/SVG/1.1/DTD/svg11.dtd">
<!-- License: CC0. Made by SVG Repo: https://www.svgrepo.com/svg/13093/man -->
<svg version="1.1" id="Capa_1" xmlns="http://www.w3.org/2000/svg" xmlns:xlink="http://www.w3.org/1999/xlink" x="0px" y="0px"
	 viewBox="0 0 178.488 178.488" style="enable-background:new 0 0 178.488 178.488;" xml:space="preserve">
<g>
	<rect x="0" y="0" style="fill:#51BFD2;" width="178.488" height="178.488"/>
	<g>
		
			<ellipse transform="matrix(-0.3127 -0.9499 0.9499 -0.3127 -0.6391 154.2285)" style="fill-rule:evenodd;clip-rule:evenodd;fill:#FFE7DE;" cx="55.48" cy="77.345" rx="7.934" ry="4.588"/>
		
			<ellipse transform="matrix(0.3129 -0.9498 0.9498 0.3129 9.5985 167.9599)" style="fill-rule:evenodd;clip-rule:evenodd;fill:#FFE7DE;" cx="120.883" cy="77.346" rx="7.934" ry="4.589"/>
		<path style="fill-rule:evenodd;clip-rule:evenodd;fill:#AB7F42;" d="M111.078,36.932c6.732,1.074,10.457,5.689,12.051,11.954
			c4.15,16.307-4.537,51.673-34.609,52.094c-15.506,0.217-26.677-3.726-30.746-16.277c-4.069-12.552-5.739-32.778,3.105-44.114
			C72.008,26.328,95.365,26.194,111.078,36.932z"/>
		<path style="fill-rule:evenodd;clip-rule:evenodd;fill:#8A6EA0;" d="M75.513,120.066c-28.144,12.338-36.585,18.914-39.923,21.868
			c-5.143,4.551-8.162,22.106-11.195,36.509h63.672h63.674c-3.033-14.402-5.703-31.958-10.846-36.509
			c-3.337-2.954-11.471-9.362-39.613-21.7L75.513,120.066z"/>
		<path style="fill-rule:evenodd;clip-rule:evenodd;fill:#FFE7DE;" d="M74.578,95.472v20.886v12.48
			c7.514,8.885,19.813,9.203,27.328,0v-12.48V95.472C101.906,78.627,74.578,78.627,74.578,95.472z"/>
		<path style="fill-rule:evenodd;clip-rule:evenodd;fill:#FFE7DE;" d="M88.242,39.465c-45.863,0-29.369,59.754-26.374,64.166
			c3.304,4.864,18.964,13.421,26.374,13.421c7.41,0,23.07-9.64,26.374-14.505C117.611,98.135,134.105,39.465,88.242,39.465z"/>
		<g>
			<path style="fill-rule:evenodd;clip-rule:evenodd;fill:#AB7F42;" d="M79.649,95.267c-1.347,0.668-7.359,6.084-10.9,2.33
				c-3.589-3.801,1.283-6.856,1.283-6.856c-5.24,0.718-5.521,6.583-3.624,9.124c1.896,2.54,8.552,5.085,13.91,1.074
				c7.253-5.432,7.748-5.77,7.748-5.77C84.721,92.351,80.995,94.599,79.649,95.267z"/>
			<path style="fill-rule:evenodd;clip-rule:evenodd;fill:#AB7F42;" d="M106.103,90.741c0,0,4.872,3.055,1.284,6.856
				c-3.542,3.753-9.555-1.663-10.901-2.33c-1.346-0.668-5.07-2.916-8.419-0.097c0,0,0.497,0.338,7.75,5.77
				c5.357,4.01,12.014,1.466,13.91-1.074C111.623,97.325,111.343,91.459,106.103,90.741z"/>
		</g>
		
			<polygon style="fill-rule:evenodd;clip-rule:evenodd;fill:#AB7F42;stroke:#AB7F42;stroke-linecap:round;stroke-linejoin:round;stroke-miterlimit:10;" points="
			84.644,111.277 88.066,109.943 91.811,110.943 88.242,117.052 		"/>
	</g>
</g>
</svg>
