<?xml version="1.0" encoding="iso-8859-1"?>
<!-- Generator: Adobe Illustrator 18.0.0, SVG Export Plug-In . SVG Version: 6.00 Build 0)  -->
<!DOCTYPE svg PUBLIC "-//W3C//DTD SVG 1.1//EN" "http://www.w3.org/Graphics/SVG/1.1/DTD/svg11.dtd">
<!-- License: CC0. Made by SVG Repo: https://www.svgrepo.com/svg/104418/woman -->
<svg version="1.1" id="Capa_1" xmlns="http://www.w3.org/2000/svg" xmlns:xlink="http://www.w3.org/1999/xlink" x="0px" y="0px"
	 viewBox="0 0 178.654 178.654" style="enable-background:new 0 0 178.654 178.654;" xml:space="preserve">
<g>
	<rect x="0.083" y="0" style="fill:#8A6EA0;" width="178.488" height="178.488"/>
	<g>
		
			<path style="fill-rule:evenodd;clip-rule:evenodd;fill:#E76166;stroke:#E76166;stroke-width:1.1223;stroke-linecap:round;stroke-linejoin:round;stroke-miterlimit:10;" d="
			M104.042,124.325c-0.265,0.415-26.249,0.828-26.537,1.238c-8.161,11.644-25.796,16.744-39.817,19.88
			c-13.953,3.12-14.493,20.845-14.514,32.649h136.029c-0.02-11.805-0.28-29.466-14.517-32.649
			C130.451,142.26,111.785,136.498,104.042,124.325z"/>
		<path style="fill-rule:evenodd;clip-rule:evenodd;fill:#FFE7DE;" d="M77.558,99.46v22.356v11.033
			c-4.732,8.925,8.563,37.258,13.713,37.194c4.777-0.059,17.946-26.025,13.546-37.194v-11.034V99.46
			C104.817,81.431,77.558,81.431,77.558,99.46z"/>
		<path style="fill-rule:evenodd;clip-rule:evenodd;fill:#FFE7DE;" d="M127.275,84.25c-2.736-1.174-6.602,1.706-8.63,6.43
			c-2.031,4.727-1.462,9.51,1.273,10.684c2.735,1.172,6.598-1.706,8.63-6.434C130.579,90.206,130.012,85.425,127.275,84.25z"/>
		<path style="fill-rule:evenodd;clip-rule:evenodd;fill:#FFE7DE;" d="M55.072,84.25c2.736-1.174,6.599,1.705,8.631,6.43
			c2.03,4.727,1.46,9.51-1.275,10.685c-2.734,1.171-6.598-1.706-8.629-6.435C51.767,90.206,52.338,85.425,55.072,84.25z"/>
		<path style="fill-rule:evenodd;clip-rule:evenodd;fill:#FFE7DE;" d="M91.187,122.556c-8.872,0-27.617-13.95-33.412-33.929
			c-5.854-20.177,5.166-49.115,33.412-49.115c28.244,0,39.268,28.938,33.414,49.115C118.807,108.606,100.061,122.556,91.187,122.556
			z"/>
		<path style="fill-rule:evenodd;clip-rule:evenodd;fill:#4A4545;" d="M56.825,88.239C49.918,50.38,72.301,38.368,91.187,38.368
			c21.274,0,43.263,16.315,33.086,51.12c-20.279-0.999-38.817-13.01-56.735-36.763C64.487,64.792,62.428,80.475,56.825,88.239z"/>
		<path style="fill-rule:evenodd;clip-rule:evenodd;fill:#4A4545;" d="M55.776,78.443c0,0,2.084,26.667,7.084,35.334
			c0,0,0.166-41.521,1.541-48.084C64.776,63.902,55.776,78.443,55.776,78.443z"/>
		<path style="fill-rule:evenodd;clip-rule:evenodd;fill:#4A4545;" d="M126.2,78.443c0,0-2.333,26.667-7.333,35.334l-0.334-48
			L126.2,78.443z"/>
	</g>
</g>
</svg>
